<?xml version="1.0" encoding="UTF-8" standalone="no"?>
<svg
   xmlns:dc="http://purl.org/dc/elements/1.1/"
   xmlns:cc="http://creativecommons.org/ns#"
   xmlns:rdf="http://www.w3.org/1999/02/22-rdf-syntax-ns#"
   xmlns:svg="http://www.w3.org/2000/svg"
   xmlns="http://www.w3.org/2000/svg"
   xmlns:sodipodi="http://sodipodi.sourceforge.net/DTD/sodipodi-0.dtd"
   xmlns:inkscape="http://www.inkscape.org/namespaces/inkscape"
   viewBox="0 0 22 22"
   id="svg2"
   version="1.1"
   inkscape:version="0.92.4 (5da689c313, 2019-01-14)"
   sodipodi:docname="minus.svg">
  <metadata
     id="metadata18">
    <rdf:RDF>
      <cc:Work
         rdf:about="">
        <dc:format>image/svg+xml</dc:format>
        <dc:type
           rdf:resource="http://purl.org/dc/dcmitype/StillImage" />
        <dc:title></dc:title>
      </cc:Work>
    </rdf:RDF>
  </metadata>
  <sodipodi:namedview
     pagecolor="#ffffff"
     bordercolor="#666666"
     borderopacity="1"
     objecttolerance="10"
     gridtolerance="10"
     guidetolerance="10"
     inkscape:pageopacity="0"
     inkscape:pageshadow="2"
     inkscape:window-width="1770"
     inkscape:window-height="949"
     id="namedview16"
     showgrid="false"
     inkscape:zoom="6.9575"
     inkscape:cx="-8.2457779"
     inkscape:cy="11"
     inkscape:window-x="661"
     inkscape:window-y="204"
     inkscape:window-maximized="0"
     inkscape:current-layer="svg2" />
  <defs
     id="defs4">
    <clipPath
       id="clipPath6">
      <path
         fill="#f2f2f2"
         d="m7 1023.36h1v1h-1z"
         id="path8" />
    </clipPath>
    <clipPath
       id="clipPath10">
      <path
         d="m69.63 12.145h-.052c-22.727-.292-46.47 4.077-46.709 4.122-2.424.451-4.946 2.974-5.397 5.397-.044.237-4.414 23.983-4.122 46.71-.292 22.777 4.078 46.523 4.122 46.761.451 2.423 2.974 4.945 5.398 5.398.237.044 23.982 4.413 46.709 4.121 22.779.292 46.524-4.077 46.761-4.121 2.423-.452 4.946-2.976 5.398-5.399.044-.236 4.413-23.981 4.121-46.709.292-22.777-4.077-46.523-4.121-46.761-.453-2.423-2.976-4.946-5.398-5.397-.238-.045-23.984-4.414-46.71-4.122"
         id="path12" />
    </clipPath>
  </defs>
  <path
     id="path14"
     style="fill:#232629;stroke-width:0.11912"
     d="m 11.234375,9.0644531 c 0.0015,0.059697 -1.64e-4,-0.025132 0.0039,0.1445313 H 10.820312 9.8632812 9.2109375 v 0.00586 c 0,0 -3.8741366,-0.00122 -5.7910156,0.00391 v 3.570312 c 1.7705495,-0.0024 4.835207,-0.0039 5.3496093,-0.0039 0.010958,-0.0082 0.066258,9.67e-4 0.087891,0 h 0.3535156 v 0.06055 c 0.2694408,-0.105436 0.5545593,-0.08586 0.8515625,-0.0293 0.160558,-0.01709 0.381418,-0.01788 0.564453,-0.01758 0.04688,-0.02352 0.148422,0.01926 0.257813,0.07617 0.09581,-0.04349 0.192347,-0.08322 0.292968,-0.09375 0.12871,-0.01347 0.259475,-0.0051 0.392578,0.0098 0.02448,0.0052 0.04957,0.011 0.07422,0.01563 0.04476,-0.0025 0.08966,-0.0061 0.138672,-0.0078 0.200003,-3.32e-4 0.395886,0.0022 0.574219,0.002 0.02917,-0.01359 0.04231,-0.01908 0.07617,-0.03516 0.02467,-0.01171 0.194954,0.0203 0.314453,0.03516 0.01172,3.8e-5 0.02342,-1.01e-4 0.03516,0 v -0.01563 h 0.246094 c 0.0025,-0.154667 0.0036,-0.301447 0.01172,-0.273437 0.006,0.02066 0.01231,0.112481 0.02148,0.273437 h 5.509766 V 9.2148438 h -4.925782 c -0.02794,9.844e-4 -0.09139,6.097e-4 -0.126953,0 h -0.736328 v -0.00586 h -0.371094 -0.638671 c -0.0272,0 -0.511085,0.00682 -0.511719,0 -0.0021,-0.02299 -0.0039,-0.1069077 -0.0059,-0.1445313 z m 1.533203,7.7070309 c -0.03095,0.01018 -0.06323,0.01266 -0.09375,0.02539 -0.01129,0.002 -0.01047,0.0019 -0.02148,0.0039 -6e-6,0.0201 0.0066,0.0337 0.0059,0.05469 0.0388,-0.02953 0.07279,-0.05194 0.109375,-0.08398 z" />
</svg>
