<svg xmlns="http://www.w3.org/2000/svg" xmlns:xlink="http://www.w3.org/1999/xlink" width="64" height="64" version="1.1"><defs id="defs5455"><linearGradient id="linearGradient4251-0"><stop style="stop-color:#63984b" id="stop4253-4"/><stop style="stop-color:#8fc278" id="stop4255-2" offset="1"/></linearGradient><linearGradient id="linearGradient4232" x2="0" y1="54" y2="12" gradientTransform="matrix(1 0 0 1 376.57144 490.79797)" gradientUnits="userSpaceOnUse" xlink:href="#linearGradient4251-0"/><linearGradient id="linearGradient4384" x2="0" y1="1043.362" y2="1012.362" gradientTransform="matrix(0.625 0 0 0.64516132 437.17147 -135.33899)" gradientUnits="userSpaceOnUse" xlink:href="#linearGradient4159"/><linearGradient id="linearGradient4159"><stop style="stop-color:#2a2c2f" id="stop4161"/><stop style="stop-color:#424649" id="stop4163" offset="1"/></linearGradient><linearGradient id="linearGradient4300"><stop style="stop-color:#26c281" id="stop4302"/><stop style="stop-color:#3fc380" id="stop4304" offset="1"/></linearGradient><linearGradient id="linearGradient4300-2"><stop style="stop-color:#22a7f0" id="stop4302-4"/><stop style="stop-color:#19b5fe" id="stop4304-7" offset="1"/></linearGradient><linearGradient id="linearGradient4300-2-3"><stop style="stop-color:#f9b425" id="stop4302-4-0"/><stop style="stop-color:#f9bf3b" id="stop4304-1" offset="1"/></linearGradient><linearGradient id="linearGradient4300-7"><stop style="stop-color:#e00a5e" id="stop4302-8"/><stop style="stop-color:#f62870" id="stop4304-6" offset="1"/></linearGradient><linearGradient id="linearGradient4746" x2="0" y1="523.798" y2="516.798" gradientTransform="matrix(1 0 0 1 -376.5722 -498.79797)" gradientUnits="userSpaceOnUse" xlink:href="#linearGradient4300-7"/><linearGradient id="linearGradient4818" x2="0" y1="523.798" y2="516.798" gradientTransform="matrix(1 0 0 1 -376.5722 -492.79797)" gradientUnits="userSpaceOnUse" xlink:href="#linearGradient4300-2-3"/><linearGradient id="linearGradient4824" x2="0" y1="523.798" y2="516.798" gradientTransform="matrix(1 0 0 1 -376.5722 -486.79797)" gradientUnits="userSpaceOnUse" xlink:href="#linearGradient4300-2"/><linearGradient id="linearGradient4830" x2="0" y1="523.798" y2="516.798" gradientTransform="matrix(1 0 0 1 -376.5722 -480.79797)" gradientUnits="userSpaceOnUse" xlink:href="#linearGradient4300"/><linearGradient id="linearGradient4227"><stop style="stop-color:#292c2f" id="stop4229"/><stop style="stop-opacity:0" id="stop4231" offset="1"/></linearGradient><linearGradient id="linearGradient4864" x1="20" x2="48" y1="20" y2="48" gradientTransform="matrix(1 0 0 1 376.57144 490.79797)" gradientUnits="userSpaceOnUse" xlink:href="#linearGradient4227"/><linearGradient id="linearGradient4922" x1="-6" x2="24" y1="6" y2="36" gradientTransform="matrix(1 0 0 1 376.57144 490.79797)" gradientUnits="userSpaceOnUse" xlink:href="#linearGradient4227"/><linearGradient id="linearGradient4932" x1="-6" x2="24" y1="6" y2="36" gradientTransform="matrix(1 0 0 1 376.57144 496.79797)" gradientUnits="userSpaceOnUse" xlink:href="#linearGradient4227"/><linearGradient id="linearGradient4936" x1="-6" x2="24" y1="6" y2="36" gradientTransform="matrix(1 0 0 1 376.57144 502.79797)" gradientUnits="userSpaceOnUse" xlink:href="#linearGradient4227"/><linearGradient id="linearGradient4940" x1="-6" x2="24" y1="6" y2="36" gradientTransform="matrix(1 0 0 1 376.57144 508.79797)" gradientUnits="userSpaceOnUse" xlink:href="#linearGradient4227"/></defs><metadata id="metadata5458"/><g id="layer1" transform="matrix(1 0 0 1 -376.57144 -491.79797)"><path style="fill:url(#linearGradient4232)" id="rect4200" d="m 382.57144,502.79797 0,42 4,0 0,-4 12,0 0,4 30,0 0,-4 8,0 0,-30 -20,0 -30,0 0,-6 0,-2 z"/><path style="fill:url(#linearGradient4940);opacity:.2;fill-rule:evenodd" id="path4938" d="m 391.57144,530.79797 -5,4 6,6 6,0 0,4 7,0 -14,-14 z"/><path style="fill:url(#linearGradient4936);opacity:.2;fill-rule:evenodd" id="path4934" d="m 391.57144,524.79797 -5,4 12,12 4,4 9,0 -20,-20 z"/><path style="fill:url(#linearGradient4932);opacity:.2;fill-rule:evenodd" id="path4930" d="m 391.57144,518.79797 -5,4 22,22 9,0 -26,-26 z"/><path style="fill:url(#linearGradient4922);opacity:.2;fill-rule:evenodd" id="path4896" d="m 391.57144,512.79797 -5,4 28,28 9,0 -32,-32 z"/><path style="fill:url(#linearGradient4864);opacity:.2;fill-rule:evenodd" id="path4842" d="m 424.57144,517.79797 -20,20 6,7 18,0 0,-4 6,0 0,-13 -10,-10 z"/><rect style="fill:#dce269" id="rect4234" width="30" height="1" x="398.571" y="543.798"/><path style="color:#000" id="path4303" d="m 406.57144,538.79797 0,1 1,0 0,-1 -1,0 z m 1,1 0,1 1,0 0,-1 -1,0 z m 1,0 1,0 0,-1 -1,0 0,1 z m 1,0 0,1 1,0 0,-1 -1,0 z m 1,0 1,0 0,-1 -1,0 0,1 z m 1,0 0,1 1,0 0,-1 -1,0 z m 1,0 1,0 0,-1 -1,0 0,1 z m 1,0 0,1 1,0 0,-1 -1,0 z m 1,0 1,0 0,-1 -1,0 0,1 z m 1,0 0,1 1,0 0,-1 -1,0 z m 1,0 1,0 0,-1 -1,0 0,1 z m 1,0 0,1 1,0 0,-1 -1,0 z m 1,0 1,0 0,-1 -1,0 0,1 z m 1,0 0,1 1,0 0,-1 -1,0 z m 1,0 1,0 0,-1 -1,0 0,1 z m 1,0 0,1 1,0 0,-1 -1,0 z"/><path style="color:#000" id="path4313" d="m 390.57144,537.79797 0,1 1,0 0,-1 -1,0 z m 1,1 0,1 1,0 0,-1 -1,0 z m 1,0 1,0 0,-1 -1,0 0,1 z m 1,0 0,1 1,0 0,-1 -1,0 z m 1,0 1,0 0,-1 -1,0 0,1 z m -4,0 -1,0 0,1 1,0 0,-1 z"/><rect style="fill:url(#linearGradient4384);fill-rule:evenodd" id="rect4241" width="20" height="20" x="404.671" y="517.798"/><rect style="fill:#afc0c6" id="rect4487" width="4" height="42" x="382.571" y="502.798"/><rect style="fill:#96aab5" id="rect4489" width="1" height="42" x="382.571" y="502.798"/><path style="color:#000" id="path4497" d="m 422.57144,514.79797 0,1 -1,0 0,-1 1,0 z m -1,1 0,1 -1,0 0,-1 1,0 z m -1,0 -1,0 0,-1 1,0 0,1 z m -1,0 0,1 -1,0 0,-1 1,0 z m -1,0 -1,0 0,-1 1,0 0,1 z m -1,0 0,1 -1,0 0,-1 1,0 z m -1,0 -1,0 0,-1 1,0 0,1 z m -1,0 0,1 -1,0 0,-1 1,0 z m -1,0 -1,0 0,-1 1,0 0,1 z m -1,0 0,1 -1,0 0,-1 1,0 z m -1,0 -1,0 0,-1 1,0 0,1 z m -1,0 0,1 -1,0 0,-1 1,0 z m -1,0 -1,0 0,-1 1,0 0,1 z m -1,0 0,1 -1,0 0,-1 1,0 z m -1,0 -1,0 0,-1 1,0 0,1 z m -1,0 0,1 -1,0 0,-1 1,0 z"/><path style="fill:#afc0c6" id="path4757" d="m 382.57144,512.79797 c -0.554,0 -1,0.446 -1,1 l 0,2 c 0,0.554 0.446,1 1,1 l 1,0 0,-4 z"/><path style="fill:url(#linearGradient4746)" id="rect4738" d="m 386.57145,512.79797 0,4 3.90039,0 c 0.0355,0 0.0651,-0.016 0.0996,-0.0195 l 0,0.0195 1,0 0,-4 -1,0 0,0.0195 c -0.0345,-0.004 -0.0641,-0.0195 -0.0996,-0.0195 l -3.90039,0 z"/><path style="fill:#afc0c6" id="path4807" d="m 382.57144,518.79797 c -0.554,0 -1,0.446 -1,1 l 0,2 c 0,0.554 0.446,1 1,1 l 1,0 0,-4 z"/><path style="fill:url(#linearGradient4818)" id="path4816" d="m 386.57145,518.79797 0,4 3.90039,0 c 0.0355,0 0.0651,-0.016 0.0996,-0.0195 l 0,0.0195 1,0 0,-4 -1,0 0,0.0195 c -0.0345,-0.004 -0.0641,-0.0195 -0.0996,-0.0195 l -3.90039,0 z"/><path style="fill:#afc0c6" id="path4820" d="m 382.57144,524.79797 c -0.554,0 -1,0.446 -1,1 l 0,2 c 0,0.554 0.446,1 1,1 l 1,0 0,-4 z"/><path style="fill:url(#linearGradient4824)" id="path4822" d="m 386.57145,524.79797 0,4 3.90039,0 c 0.0355,0 0.0651,-0.016 0.0996,-0.0195 l 0,0.0195 1,0 0,-4 -1,0 0,0.0195 c -0.0345,-0.004 -0.0641,-0.0195 -0.0996,-0.0195 l -3.90039,0 z"/><path style="fill:#afc0c6" id="path4826" d="m 382.57144,530.79797 c -0.554,0 -1,0.446 -1,1 l 0,2 c 0,0.554 0.446,1 1,1 l 1,0 0,-4 z"/><path style="fill:url(#linearGradient4830)" id="path4828" d="m 386.57145,530.79797 0,4 3.90039,0 c 0.0355,0 0.0651,-0.016 0.0996,-0.0195 l 0,0.0195 1,0 0,-4 -1,0 0,0.0195 c -0.0345,-0.004 -0.0641,-0.0195 -0.0996,-0.0195 l -3.90039,0 z"/><rect style="opacity:.09" id="rect4832" width="5" height="1" x="386.571" y="533.798"/><rect style="opacity:.09" id="rect4834" width="5" height="1" x="386.571" y="527.798"/><rect style="opacity:.09" id="rect4836" width="5" height="1" x="386.571" y="521.798"/><rect style="opacity:.09" id="rect4838" width="5" height="1" x="386.571" y="515.798"/><path style="fill:#afc0c6;stroke-linecap:round;stroke-width:2" id="rect4144" d="m 409.67142,523.29816 0,2 -1,0 0,2 -1,0 0,1 1,0 0,2 1,0 0,1 0,0 1,0 0,-2 1,0 0,0 0,-1 2,0 0,1 1,0 0,1 1,0 0,1 1,0 0,2 1,0 0,-1 1,0 0,-2 1,0 0,-1 1,0 0,-1 1,0 0,-1 -1,0 0,-1 -1,0 0,-1 -1,0 0,-2 -1,0 0,-1 -1,0 0,2 -1,0 0,1 -1,0 0,1 -1,0 0,1 -2,0 0,-1 0,0 -1,0 0,-3 0,0 z"/></g></svg>